PathFileType	4	(X/Y/Z)	/Users/mathieubourgeois/Desktop/Analyse/Traitement/Sujet_06/Data/Transformed_Sujet_06_velo100.trc
DataRate	CameraRate	NumFrames	NumMarkers	Units	OrigDataRate	OrigDataStartFrame	OrigNumFrames
120.000000	120.000000	5	36	mm	120.000000	0	1864
Frame#	Time	RFHD			RANE			STRN			LANI			LKNE			T10			RHUM			RWRB			C7			LFWT			LTOE			RTOE			LWRA			LBWT			RBWT			RFWT			LKNI			RKNI			RKNE			LANE			RANI			LHEE			RHEE			LHUM			LRAD			RRAD			RWRA			LWRB			LFHD			LBHD			RBHD			RSHO			LSHO			CLAV			LCAR			RCAR			
		X1	Y1	Z1	X2	Y2	Z2	X3	Y3	Z3	X4	Y4	Z4	X5	Y5	Z5	X6	Y6	Z6	X7	Y7	Z7	X8	Y8	Z8	X9	Y9	Z9	X10	Y10	Z10	X11	Y11	Z11	X12	Y12	Z12	X13	Y13	Z13	X14	Y14	Z14	X15	Y15	Z15	X16	Y16	Z16	X17	Y17	Z17	X18	Y18	Z18	X19	Y19	Z19	X20	Y20	Z20	X21	Y21	Z21	X22	Y22	Z22	X23	Y23	Z23	X24	Y24	Z24	X25	Y25	Z25	X26	Y26	Z26	X27	Y27	Z27	X28	Y28	Z28	X29	Y29	Z29	X30	Y30	Z30	X31	Y31	Z31	X32	Y32	Z32	X33	Y33	Z33	X34	Y34	Z34	X35	Y35	Z35	X36	Y36	Z36	

1	0	278.1434326171875	1378.209106445312	124.9362182617187	-56.47071075439455	593.5219116210938	187.8670501708984	-25.03504943847657	1192.039916992188	46.45179748535149	-67.66238403320312	260.532470703125	-56.74847412109377	-22.35251045227049	657.424560546875	-128.0116729736328	-183.1435394287109	1346.652465820312	49.30090713500966	185.6467895507812	1113.460205078125	251.2420654296875	390.6184997558594	1027.49658203125	175.7219390869141	53.2776870727539	1449.623901367188	58.91950607299797	-168.6255645751953	1106.521728515625	-71.03189086914071	55.94464111328126	138.8788452148438	-131.1210632324219	89.71362304687497	478.2217407226562	184.0263061523437	402.8889770507812	1024.0712890625	-132.0704193115234	-326.3647155761719	1142.348266601562	-15.42743778228771	-326.9207458496094	1142.3828125	93.91875457763661	-169.2727508544922	1108.823364257812	141.1484374999999	-6.021864414215084	608.1840209960938	-31.12459945678714	158.0756072998047	876.8767700195312	74.78330230712886	143.9759216308593	918.8450927734375	170.2743682861328	-102.7499542236328	259.6737365722656	-133.0532836914063	-39.3728485107422	582.8362426757812	110.7164001464843	-153.1063842773438	261.2956237792969	-89.47148132324222	-118.2028045654297	594.941650390625	146.7728881835937	180.6843414306641	1114.575805664062	-202.1590270996094	217.2673950195313	1159.843505859375	-231.848129272461	227.785171508789	1145.473754882812	297.6755981445312	430.3380126953125	1036.52294921875	225.0788269042969	426.197509765625	1026.435424804688	-189.8995513916016	282.466064453125	1378.907592773438	-18.6522998809815	198.5315093994141	1503.717529296875	-19.75028991699226	196.7306518554688	1522.71533203125	107.6969528198241	72.23728942871091	1406.0908203125	189.7223205566405	67.8868865966797	1412.5830078125	-89.37768554687507	65.53267669677734	1312.757934570312	50.09663391113274	479.1337585449219	1045.621215820312	-112.751579284668	495.25537109375	1039.6748046875	141.8171997070312	
2	0.008333333333333333	278.1364440917969	1377.723266601562	125.2713623046874	-44.98368453979494	588.7623291015625	187.924560546875	-25.48926353454591	1192.170776367188	46.8627624511718	-76.72225952148438	265.7685241699219	-56.99768829345705	-20.23034286499022	659.63037109375	-128.4487915039063	-183.2222442626953	1346.900268554688	49.69993591308583	185.5274658203125	1113.172729492188	251.4614868164062	390.5420532226562	1027.498901367188	175.7775421142578	53.34794235229491	1449.568237304688	59.49876785278312	-169.1701202392578	1106.95263671875	-70.94776916503915	40.18287658691408	138.527587890625	-131.0482940673828	107.0636138916015	479.2691345214844	183.4900512695312	402.8891296386719	1024.070556640625	-131.9090118408203	-326.7769775390625	1142.6650390625	-14.83321380615245	-327.1647338867188	1142.598754882812	94.44667053222645	-169.5229644775391	1109.193603515625	141.368667602539	-4.082614421844479	610.6304321289062	-31.61300659179691	159.5154724121094	879.44970703125	73.37596893310543	144.421875	921.1946411132812	168.4031066894531	-113.4737396240234	265.4010620117188	-132.4061737060547	-24.29850387573244	577.9325561523438	110.7676239013672	-163.5159454345703	268.9189758300781	-88.48813629150393	-106.914436340332	587.9512939453125	147.0239562988281	180.5499114990235	1114.662963867188	-201.2960205078125	217.0479888916016	1159.85498046875	-231.2386016845703	227.5634613037109	1145.056762695312	297.9799804687499	430.2654113769531	1036.533203125	225.1501922607422	426.0689392089844	1026.438354492188	-189.7942199707031	282.3687744140625	1378.5068359375	-18.34550476074224	198.6217193603516	1503.502685546875	-19.30517005920417	197.0092315673828	1522.380981445312	108.2033004760741	72.24757385253903	1405.898803710938	190.2884216308593	67.81701660156251	1412.681030273438	-88.69562530517585	65.39035034179688	1312.65771484375	50.61289215087884	479.1228942871094	1045.620971679688	-112.7355880737305	495.2132568359375	1039.69873046875	141.9032135009766	
3	0.01666666666666667	278.062255859375	1377.30078125	125.4789428710937	-33.22726058959963	582.6793823242188	188.4243621826172	-25.8321647644043	1192.236694335938	47.28088378906243	-85.19326782226562	272.2213745117188	-57.31577301025393	-17.07015800476073	662.5073852539062	-129.0973815917969	-183.4037933349609	1347.084594726562	50.14855194091786	185.4693603515625	1113.023681640625	251.5020751953125	390.5388793945312	1027.525268554688	175.7676391601562	53.28834533691406	1449.527221679688	59.99853515624992	-169.6192626953125	1107.354248046875	-70.70554351806649	24.48752784729006	139.2871398925781	-131.000244140625	121.5458831787109	478.987548828125	183.1627655029297	402.9017028808594	1024.050537109375	-131.7985229492188	-327.1922912597656	1142.8486328125	-14.23358249664318	-327.4864501953125	1142.697387695312	94.97091674804676	-169.900131225586	1109.515014648438	141.6860198974609	-1.295816302299496	613.565185546875	-32.38215637207035	160.4620666503906	880.6460571289062	71.80397796630855	144.534423828125	922.3349609375	166.573745727539	-123.6418304443359	272.3558349609375	-131.7273101806641	-14.96552848815919	573.9736938476562	111.7034835815429	-173.2784881591797	277.929443359375	-87.49786376953128	-95.27349090576173	579.883056640625	148.0606231689453	180.5202178955078	1114.90625	-200.2135467529297	216.8446350097657	1159.856323242188	-230.6738891601563	227.4282073974609	1144.80615234375	298.1363525390624	430.23876953125	1036.589599609375	225.1007385253906	425.9954528808594	1026.449829101562	-189.7440490722656	282.1602478027344	1378.200073242188	-18.11705970764165	198.6221466064453	1503.307373046875	-18.86451721191413	197.1703338623047	1522.125122070312	108.6335144042968	72.18080139160153	1405.776489257812	190.845001220703	67.6970672607422	1412.704956054688	-88.10369873046882	65.19888305664062	1312.576293945312	51.08380508422844	479.1658325195312	1045.616577148438	-112.7606582641602	495.2291564941406	1039.706298828125	141.8982849121094	
4	0.025	277.9180908203125	1376.951416015625	125.6269454956054	-21.59797668457034	575.70263671875	189.8555297851562	-26.51518821716309	1192.373291015625	48.1364440917968	-93.49221801757812	280.2313537597656	-57.51429367065433	-13.05219078063963	665.9912719726562	-129.9558563232422	-183.6251220703125	1347.177490234375	50.5329360961913	185.4765472412109	1112.983276367188	251.4225006103515	390.5830688476562	1027.609741210938	175.6813507080078	53.10649108886718	1449.474243164062	60.43429183959953	-169.9219360351562	1107.629150390625	-70.34740447998055	9.02553558349611	141.5571136474609	-130.9774627685547	137.847183227539	475.9845886230469	182.1663818359375	402.4009399414062	1022.132507324219	-131.0488433837891	-327.6139526367188	1142.982177734375	-13.77258586883556	-327.8782348632812	1142.899169921875	95.28202056884754	-170.4984588623047	1109.78515625	142.2509307861327	2.560577869415287	617.1058349609375	-33.36357879638675	161.0482025146484	880.1270141601562	70.7804794311523	144.4248504638672	921.2366333007812	165.1602783203125	-133.3644256591797	280.1798095703125	-131.1151885986329	0.1332663446664672	565.6173706054688	112.9795455932617	-182.4408264160156	288.3475952148438	-86.84091949462895	-82.9271926879883	569.97802734375	150.1045989990234	180.440170288086	1114.890380859375	-199.6208038330078	216.6159210205078	1159.82763671875	-230.2715301513672	227.1333618164062	1145.483032226562	298.4092712402343	430.2576293945312	1037.453002929688	225.1846008300781	426.7757873535156	1025.936767578125	-189.7964172363281	281.8304138183594	1377.945922851562	-17.96116065979009	198.4510955810547	1503.126953125	-18.5087909698487	196.1880340576172	1521.665649414062	109.2106781005859	72.03464508056638	1405.717163085938	191.2484893798827	67.53399658203126	1412.665405273438	-87.58758544921882	64.95771789550781	1312.521728515625	51.54022979736321	478.5360412597656	1046.513305664062	-111.8623428344727	495.3200378417969	1039.692504882812	141.8271942138672	
5	0.03333333333333333	277.7589416503906	1376.720092773438	125.7173995971679	-9.410068511962914	566.9511108398438	190.4145965576172	-26.97190475463868	1192.319580078125	48.57647705078118	-102.569694519043	288.4135131835938	-56.86703109741214	-8.304668426513656	670.0971069335938	-130.9939117431641	-183.9195098876953	1347.328002929688	50.97990798950185	185.5538024902343	1113.031494140625	251.2432403564453	390.7267761230469	1027.900268554688	175.5250091552734	52.90992355346679	1449.423095703125	60.66324234008781	-170.1544342041016	1107.853393554688	-69.86068725585946	-5.981153964996322	145.1352844238281	-130.9490203857422	152.646499633789	472.2672729492188	181.8196716308594	402.48681640625	1022.073852539062	-131.0620422363281	-328.0717468261719	1143.06201171875	-13.23438549041759	-328.2789611816406	1142.860473632812	95.57684326171864	-171.0577545166016	1109.89599609375	142.800811767578	6.997865676879887	621.0529174804688	-34.50883483886722	161.1119842529297	878.0303344726562	69.81887054443355	143.8392639160156	919.1063842773438	163.6257781982422	-142.1324005126953	289.5985717773438	-130.5613861083985	15.11016273498534	557.8839111328125	112.9893722534179	-190.6232299804688	299.9491271972656	-86.08753204345707	-71.29751586914064	559.4229736328125	151.6797637939453	180.4680938720703	1115.015869140625	-199.1925354003907	216.6952667236328	1159.943359375	-229.9270935058594	227.1218566894531	1145.504272460938	298.3188476562499	430.3124084472656	1037.552978515625	225.0336303710938	427.0621337890625	1025.949829101562	-189.9681549072266	281.5914916992188	1377.873779296875	-18.03241729736333	198.1295318603516	1503.156127929688	-18.19602012634284	194.2705383300781	1522.487915039062	110.3415603637695	71.76088714599607	1405.673950195312	191.6238250732421	67.34133148193361	1412.45556640625	-87.28363800048835	64.63671875	1312.415649414062	51.9784965515136	478.6159362792969	1046.497192382812	-111.9516372680664	495.4743347167969	1039.6904296875	141.6282043457031	
